<?xml version="1.0" encoding="utf-8"?><svg fill="none" viewBox="0 0 1000 600" xmlns="http://www.w3.org/2000/svg"><defs><radialGradient id="null" gradientUnits="userSpaceOnUse" spreadMethod="pad" cx="0" cy="0" r="325.844" fy="0" fx="0"><stop offset="0%" stop-color="#e58500" /><stop offset="74.3%" stop-color="#f2c280" /><stop offset="100%" stop-color="#ffffff" /></radialGradient><radialGradient id="null" gradientUnits="userSpaceOnUse" spreadMethod="pad" cx="0" cy="0" r="408.008" fy="0" fx="0"><stop offset="0%" stop-color="#ffffff" /><stop offset="74.5%" stop-color="#ffffff" /><stop offset="100%" stop-color="#ffffff" /></radialGradient></defs><g transform="matrix(1,0,0,1,500,300)" id="Colour gradient"><g id="Rectangle 1" transform="matrix(1,0,0,1,-1.207,-7.988)"><rect height="468.023" width="989.586" y="0" x="0" fill="url(#null)" /></g></g><g id="Page 9"><g transform="translate(953.107,298.259)"><animateTransform repeatCount="indefinite" type="translate" attributeName="transform" dur="3.6s" begin="0s" calcMode="spline" values="953.107 298.259; 841.107 298.259; 729.107 298.259; 617.15 298.259; 505.15 298.259; 393.15 298.259; 281.15 298.259; 169.15 298.259; 57.15 298.259; -59.975 298.259" keyTimes="0; 0.111; 0.222; 0.333; 0.444; 0.556; 0.667; 0.778; 0.889; 1" keySplines="0 0 1 1; 0 0 1 1; 0 0 1 1; 0 0 1 1; 0 0 1 1; 0 0 1 1; 0 0 1 1; 0 0 1 1; 0 0 1 1" fill="freeze" /><g transform="scale(0.521,0.521) translate(290.185,51.964)"><g id="Shape 14" transform="matrix(0.94,-0.342,0.342,0.94,-293.067,-126.428)"><g id="Shape 2" fill="#ffffff" fill-opacity="1"><path fill="#f0f0f0" fill-opacity="1" d="M43.75,-101.25L43.75,-45.25L92.75,-45.25L43.75,-101.25Z" /></g><g id="Shape 3" fill="#ffffff" fill-opacity="1"><path stroke-linejoin="miter" stroke-linecap="butt" stroke-width="12" stroke-opacity="1" stroke="#f0f0f0" d="M-136,-86L-135,227L84,227" /></g><g id="Shape 4" transform="matrix(1,0,0,1,-3,0)" fill="#ffffff" fill-opacity="1"><path stroke-linejoin="miter" stroke-linecap="round" stroke-width="5" stroke-opacity="1" stroke="#44475b" fill="#f0f0f0" fill-opacity="1" d="M-83,-34L-39,-34" /></g><g id="Shape 5" fill="#ffffff" fill-opacity="1"><path stroke-linejoin="miter" stroke-linecap="round" stroke-width="5" stroke-opacity="1" stroke="#44475b" fill="#f0f0f0" fill-opacity="1" d="M-86,-13L52,-13" /></g><g id="Shape 6" transform="matrix(0.747,0,0,0.931,0,37.746)" fill="#ffffff" fill-opacity="1"><path stroke-linejoin="miter" stroke-linecap="round" stroke-width="5" stroke-opacity="1" stroke="#44475b" fill="#f0f0f0" fill-opacity="1" d="M-115.452,9L22.548,9" /></g><g id="Shape 7" transform="matrix(1,0,0,1,0,37.746)" fill="#ffffff" fill-opacity="1"><path stroke-linejoin="miter" stroke-linecap="round" stroke-width="5" stroke-opacity="1" stroke="#44475b" fill="#f0f0f0" fill-opacity="1" d="M-86,-12L52,-12" /></g><g id="Shape 8" transform="matrix(1,0,0,1,0,37.746)" fill="#ffffff" fill-opacity="1"><path stroke-linejoin="miter" stroke-linecap="round" stroke-width="5" stroke-opacity="1" stroke="#44475b" fill="#f0f0f0" fill-opacity="1" d="M-86,-31L52,-31" /></g><path d="M43,-102L-129,-102L-129,221L93,221L93,-45L43,-102Z" fill="#ffffff" fill-opacity="1" /></g></g></g></g><g opacity="1" id="Page 8"><animate repeatCount="indefinite" attributeName="opacity" dur="0.05s" begin="3.1666666666666665s" calcMode="spline" values="1; 0; 0; 1" keyTimes="0; 0.333; 0.667; 1" keySplines="0 0 1 1; 0 0 1 1; 0 0 1 1" fill="freeze" /><g transform="translate(838.785,265.228)"><animateTransform repeatCount="indefinite" type="translate" attributeName="transform" dur="3.6s" begin="0s" calcMode="spline" values="838.785 265.228; 726.785 265.228; 614.785 265.228; 502.829 265.228; 390.829 265.228; 278.829 265.228; 166.829 265.228; 54.829 265.228; -57.171 265.228; 953.1 265.228; 835.975 265.228" keyTimes="0; 0.111; 0.222; 0.333; 0.444; 0.556; 0.667; 0.778; 0.884; 0.889; 1" keySplines="0 0 1 1; 0 0 1 1; 0 0 1 1; 0 0 1 1; 0 0 1 1; 0 0 1 1; 0 0 1 1; 0 0 1 1; 0 0 1 1; 0 0 1 1" fill="freeze" /><g transform="scale(0.521,0.521) translate(-532.36,47.582)"><g id="Shape 10" transform="matrix(0.996,0.087,-0.087,0.996,561.211,-107.883)"><g id="Shape 2" fill="#ffffff" fill-opacity="1"><path fill="#f0f0f0" fill-opacity="1" d="M43.75,-101.25L43.75,-45.25L92.75,-45.25L43.75,-101.25Z" /></g><g id="Shape 3" fill="#ffffff" fill-opacity="1"><path stroke-linejoin="miter" stroke-linecap="butt" stroke-width="12" stroke-opacity="1" stroke="#f0f0f0" d="M-136,-86L-135,227L84,227" /></g><g id="Shape 4" transform="matrix(1,0,0,1,-3,0)" fill="#ffffff" fill-opacity="1"><path stroke-linejoin="miter" stroke-linecap="round" stroke-width="5" stroke-opacity="1" stroke="#44475b" fill="#f0f0f0" fill-opacity="1" d="M-83,-34L-39,-34" /></g><g id="Shape 5" fill="#ffffff" fill-opacity="1"><path stroke-linejoin="miter" stroke-linecap="round" stroke-width="5" stroke-opacity="1" stroke="#44475b" fill="#f0f0f0" fill-opacity="1" d="M-86,-13L52,-13" /></g><g id="Shape 6" transform="matrix(0.747,0,0,0.931,0,37.746)" fill="#ffffff" fill-opacity="1"><path stroke-linejoin="miter" stroke-linecap="round" stroke-width="5" stroke-opacity="1" stroke="#44475b" fill="#f0f0f0" fill-opacity="1" d="M-115.452,9L22.548,9" /></g><g id="Shape 7" transform="matrix(1,0,0,1,0,37.746)" fill="#ffffff" fill-opacity="1"><path stroke-linejoin="miter" stroke-linecap="round" stroke-width="5" stroke-opacity="1" stroke="#44475b" fill="#f0f0f0" fill-opacity="1" d="M-86,-12L52,-12" /></g><g id="Shape 8" transform="matrix(1,0,0,1,0,37.746)" fill="#ffffff" fill-opacity="1"><path stroke-linejoin="miter" stroke-linecap="round" stroke-width="5" stroke-opacity="1" stroke="#44475b" fill="#f0f0f0" fill-opacity="1" d="M-86,-31L52,-31" /></g><path d="M43,-102L-129,-102L-129,221L93,221L93,-45L43,-102Z" fill="#ffffff" fill-opacity="1" /></g></g></g></g><g opacity="1" id="Page 7"><animate repeatCount="indefinite" attributeName="opacity" dur="0.05s" begin="2.7666666666666666s" calcMode="spline" values="1; 0; 0; 1" keyTimes="0; 0.333; 0.667; 1" keySplines="0 0 1 1; 0 0 1 1; 0 0 1 1" fill="freeze" /><g transform="translate(726.532,305.591)"><animateTransform repeatCount="indefinite" type="translate" attributeName="transform" dur="3.6s" begin="0s" calcMode="spline" values="726.532 305.591; 614.532 305.591; 502.532 305.591; 390.575 305.591; 278.575 305.591; 166.575 305.591; 54.575 305.591; -57.425 305.591; 953.1 305.591; 841.1 305.591; 723.975 305.591" keyTimes="0; 0.111; 0.222; 0.333; 0.444; 0.556; 0.667; 0.773; 0.778; 0.889; 1" keySplines="0 0 1 1; 0 0 1 1; 0 0 1 1; 0 0 1 1; 0 0 1 1; 0 0 1 1; 0 0 1 1; 0 0 1 1; 0 0 1 1; 0 0 1 1" fill="freeze" /><g transform="scale(0.521,0.521) translate(-342.629,-29.948)"><g id="Shape 9" transform="matrix(0.978,-0.208,0.208,0.978,349.625,-40.75)"><g id="Shape 2" fill="#ffffff" fill-opacity="1"><path fill="#f0f0f0" fill-opacity="1" d="M43.75,-101.25L43.75,-45.25L92.75,-45.25L43.75,-101.25Z" /></g><g id="Shape 3" fill="#ffffff" fill-opacity="1"><path stroke-linejoin="miter" stroke-linecap="butt" stroke-width="12" stroke-opacity="1" stroke="#f0f0f0" d="M-136,-86L-135,227L84,227" /></g><g id="Shape 4" transform="matrix(1,0,0,1,-3,0)" fill="#ffffff" fill-opacity="1"><path stroke-linejoin="miter" stroke-linecap="round" stroke-width="5" stroke-opacity="1" stroke="#44475b" fill="#f0f0f0" fill-opacity="1" d="M-83,-34L-39,-34" /></g><g id="Shape 5" fill="#ffffff" fill-opacity="1"><path stroke-linejoin="miter" stroke-linecap="round" stroke-width="5" stroke-opacity="1" stroke="#44475b" fill="#f0f0f0" fill-opacity="1" d="M-86,-13L52,-13" /></g><g id="Shape 6" transform="matrix(0.747,0,0,0.931,0,37.746)" fill="#ffffff" fill-opacity="1"><path stroke-linejoin="miter" stroke-linecap="round" stroke-width="5" stroke-opacity="1" stroke="#44475b" fill="#f0f0f0" fill-opacity="1" d="M-115.452,9L22.548,9" /></g><g id="Shape 7" transform="matrix(1,0,0,1,0,37.746)" fill="#ffffff" fill-opacity="1"><path stroke-linejoin="miter" stroke-linecap="round" stroke-width="5" stroke-opacity="1" stroke="#44475b" fill="#f0f0f0" fill-opacity="1" d="M-86,-12L52,-12" /></g><g id="Shape 8" transform="matrix(1,0,0,1,0,37.746)" fill="#ffffff" fill-opacity="1"><path stroke-linejoin="miter" stroke-linecap="round" stroke-width="5" stroke-opacity="1" stroke="#44475b" fill="#f0f0f0" fill-opacity="1" d="M-86,-31L52,-31" /></g><path d="M43,-102L-129,-102L-129,221L93,221L93,-45L43,-102Z" fill="#ffffff" fill-opacity="1" /></g></g></g></g><g opacity="1" id="Page 6"><animate repeatCount="indefinite" attributeName="opacity" dur="0.05s" begin="2.3666666666666667s" calcMode="spline" values="1; 0; 0; 1" keyTimes="0; 0.333; 0.667; 1" keySplines="0 0 1 1; 0 0 1 1; 0 0 1 1" fill="freeze" /><g transform="translate(609.656,248.135)"><animateTransform repeatCount="indefinite" type="translate" attributeName="transform" dur="3.6s" begin="0s" calcMode="spline" values="609.656 248.135; 497.656 248.135; 385.656 248.135; 273.699 248.135; 161.699 248.135; 49.699 248.135; -62.301 248.135; 953.1 248.135; 841.1 248.135; 729.1 248.135; 611.975 248.135" keyTimes="0; 0.111; 0.222; 0.333; 0.444; 0.556; 0.662; 0.667; 0.778; 0.889; 1" keySplines="0 0 1 1; 0 0 1 1; 0 0 1 1; 0 0 1 1; 0 0 1 1; 0 0 1 1; 0 0 1 1; 0 0 1 1; 0 0 1 1; 0 0 1 1" fill="freeze" /><g transform="scale(0.521,0.521) translate(-193.913,80.414)"><g id="Shape 2" transform="matrix(0.966,0.259,-0.259,0.966,237.75,-134.961)"><g id="Shape 2" fill="#ffffff" fill-opacity="1"><path fill="#f0f0f0" fill-opacity="1" d="M43.75,-101.25L43.75,-45.25L92.75,-45.25L43.75,-101.25Z" /></g><g id="Shape 3" fill="#ffffff" fill-opacity="1"><path stroke-linejoin="miter" stroke-linecap="butt" stroke-width="12" stroke-opacity="1" stroke="#f0f0f0" d="M-136,-86L-135,227L84,227" /></g><g id="Shape 4" transform="matrix(1,0,0,1,-3,0)" fill="#ffffff" fill-opacity="1"><path stroke-linejoin="miter" stroke-linecap="round" stroke-width="5" stroke-opacity="1" stroke="#44475b" fill="#f0f0f0" fill-opacity="1" d="M-83,-34L-39,-34" /></g><g id="Shape 5" fill="#ffffff" fill-opacity="1"><path stroke-linejoin="miter" stroke-linecap="round" stroke-width="5" stroke-opacity="1" stroke="#44475b" fill="#f0f0f0" fill-opacity="1" d="M-86,-13L52,-13" /></g><g id="Shape 6" transform="matrix(0.747,0,0,0.931,0,37.746)" fill="#ffffff" fill-opacity="1"><path stroke-linejoin="miter" stroke-linecap="round" stroke-width="5" stroke-opacity="1" stroke="#44475b" fill="#f0f0f0" fill-opacity="1" d="M-115.452,9L22.548,9" /></g><g id="Shape 7" transform="matrix(1,0,0,1,0,37.746)" fill="#ffffff" fill-opacity="1"><path stroke-linejoin="miter" stroke-linecap="round" stroke-width="5" stroke-opacity="1" stroke="#44475b" fill="#f0f0f0" fill-opacity="1" d="M-86,-12L52,-12" /></g><g id="Shape 8" transform="matrix(1,0,0,1,0,37.746)" fill="#ffffff" fill-opacity="1"><path stroke-linejoin="miter" stroke-linecap="round" stroke-width="5" stroke-opacity="1" stroke="#44475b" fill="#f0f0f0" fill-opacity="1" d="M-86,-31L52,-31" /></g><path d="M43,-102L-129,-102L-129,221L93,221L93,-45L43,-102Z" fill="#ffffff" fill-opacity="1" /></g></g></g></g><g opacity="1" id="Page 5"><animate repeatCount="indefinite" attributeName="opacity" dur="0.05s" begin="1.9666666666666666s" calcMode="spline" values="1; 0; 0; 1" keyTimes="0; 0.333; 0.667; 1" keySplines="0 0 1 1; 0 0 1 1; 0 0 1 1" fill="freeze" /><g transform="translate(499.957,322.538)"><animateTransform repeatCount="indefinite" type="translate" attributeName="transform" dur="3.6s" begin="0s" calcMode="spline" values="499.957 322.538; 387.957 322.538; 275.957 322.538; 164 322.538; 52 322.538; -60 322.538; 953.1 322.538; 841.1 322.538; 729.1 322.538; 617.1 322.538; 499.975 322.538" keyTimes="0; 0.111; 0.222; 0.333; 0.444; 0.551; 0.556; 0.667; 0.778; 0.889; 1" keySplines="0 0 1 1; 0 0 1 1; 0 0 1 1; 0 0 1 1; 0 0 1 1; 0 0 1 1; 0 0 1 1; 0 0 1 1; 0 0 1 1; 0 0 1 1" fill="freeze" /><g transform="scale(0.521,0.521) translate(21.5,-62.5)"><g id="Shape 1"><g id="Shape 2" fill="#ffffff" fill-opacity="1"><path fill="#f0f0f0" fill-opacity="1" d="M43.75,-101.25L43.75,-45.25L92.75,-45.25L43.75,-101.25Z" /></g><g id="Shape 3" fill="#ffffff" fill-opacity="1"><path stroke-linejoin="miter" stroke-linecap="butt" stroke-width="12" stroke-opacity="1" stroke="#f0f0f0" d="M-136,-86L-135,227L84,227" /></g><g id="Shape 4" transform="matrix(1,0,0,1,-3,0)" fill="#ffffff" fill-opacity="1"><path stroke-linejoin="miter" stroke-linecap="round" stroke-width="5" stroke-opacity="1" stroke="#44475b" fill="#f0f0f0" fill-opacity="1" d="M-83,-34L-39,-34" /></g><g id="Shape 5" fill="#ffffff" fill-opacity="1"><path stroke-linejoin="miter" stroke-linecap="round" stroke-width="5" stroke-opacity="1" stroke="#44475b" fill="#f0f0f0" fill-opacity="1" d="M-86,-13L52,-13" /></g><g id="Shape 6" transform="matrix(0.747,0,0,0.931,0,37.746)" fill="#ffffff" fill-opacity="1"><path stroke-linejoin="miter" stroke-linecap="round" stroke-width="5" stroke-opacity="1" stroke="#44475b" fill="#f0f0f0" fill-opacity="1" d="M-115.452,9L22.548,9" /></g><g id="Shape 7" transform="matrix(1,0,0,1,0,37.746)" fill="#ffffff" fill-opacity="1"><path stroke-linejoin="miter" stroke-linecap="round" stroke-width="5" stroke-opacity="1" stroke="#44475b" fill="#f0f0f0" fill-opacity="1" d="M-86,-12L52,-12" /></g><g id="Shape 8" transform="matrix(1,0,0,1,0,37.746)" fill="#ffffff" fill-opacity="1"><path stroke-linejoin="miter" stroke-linecap="round" stroke-width="5" stroke-opacity="1" stroke="#44475b" fill="#f0f0f0" fill-opacity="1" d="M-86,-31L52,-31" /></g><path d="M43,-102L-129,-102L-129,221L93,221L93,-45L43,-102Z" fill="#ffffff" fill-opacity="1" /></g></g></g></g><g opacity="1" id="Page 4"><animate repeatCount="indefinite" attributeName="opacity" dur="0.05s" begin="1.5666666666666667s" calcMode="spline" values="1; 0; 0; 1" keyTimes="0; 0.333; 0.667; 1" keySplines="0 0 1 1; 0 0 1 1; 0 0 1 1" fill="freeze" /><g transform="translate(386.669,262.947)"><animateTransform repeatCount="indefinite" type="translate" attributeName="transform" dur="3.6s" begin="0s" calcMode="spline" values="386.669 262.947; 274.669 262.947; 162.669 262.947; 50.713 262.947; -61.287 262.947; 953.1 262.947; 841.1 262.947; 729.1 262.947; 617.1 262.947; 505.1 262.947; 387.975 262.947" keyTimes="0; 0.111; 0.222; 0.333; 0.44; 0.444; 0.556; 0.667; 0.778; 0.889; 1" keySplines="0 0 1 1; 0 0 1 1; 0 0 1 1; 0 0 1 1; 0 0 1 1; 0 0 1 1; 0 0 1 1; 0 0 1 1; 0 0 1 1; 0 0 1 1" fill="freeze" /><g transform="scale(0.521,0.521) translate(290.185,51.964)"><g id="Shape 14" transform="matrix(0.94,-0.342,0.342,0.94,-293.067,-126.428)"><g id="Shape 2" fill="#ffffff" fill-opacity="1"><path fill="#f0f0f0" fill-opacity="1" d="M43.75,-101.25L43.75,-45.25L92.75,-45.25L43.75,-101.25Z" /></g><g id="Shape 3" fill="#ffffff" fill-opacity="1"><path stroke-linejoin="miter" stroke-linecap="butt" stroke-width="12" stroke-opacity="1" stroke="#f0f0f0" d="M-136,-86L-135,227L84,227" /></g><g id="Shape 4" transform="matrix(1,0,0,1,-3,0)" fill="#ffffff" fill-opacity="1"><path stroke-linejoin="miter" stroke-linecap="round" stroke-width="5" stroke-opacity="1" stroke="#44475b" fill="#f0f0f0" fill-opacity="1" d="M-83,-34L-39,-34" /></g><g id="Shape 5" fill="#ffffff" fill-opacity="1"><path stroke-linejoin="miter" stroke-linecap="round" stroke-width="5" stroke-opacity="1" stroke="#44475b" fill="#f0f0f0" fill-opacity="1" d="M-86,-13L52,-13" /></g><g id="Shape 6" transform="matrix(0.747,0,0,0.931,0,37.746)" fill="#ffffff" fill-opacity="1"><path stroke-linejoin="miter" stroke-linecap="round" stroke-width="5" stroke-opacity="1" stroke="#44475b" fill="#f0f0f0" fill-opacity="1" d="M-115.452,9L22.548,9" /></g><g id="Shape 7" transform="matrix(1,0,0,1,0,37.746)" fill="#ffffff" fill-opacity="1"><path stroke-linejoin="miter" stroke-linecap="round" stroke-width="5" stroke-opacity="1" stroke="#44475b" fill="#f0f0f0" fill-opacity="1" d="M-86,-12L52,-12" /></g><g id="Shape 8" transform="matrix(1,0,0,1,0,37.746)" fill="#ffffff" fill-opacity="1"><path stroke-linejoin="miter" stroke-linecap="round" stroke-width="5" stroke-opacity="1" stroke="#44475b" fill="#f0f0f0" fill-opacity="1" d="M-86,-31L52,-31" /></g><path d="M43,-102L-129,-102L-129,221L93,221L93,-45L43,-102Z" fill="#ffffff" fill-opacity="1" /></g></g></g></g><g opacity="1" id="Page 3"><animate repeatCount="indefinite" attributeName="opacity" dur="0.05s" begin="1.1666666666666667s" calcMode="spline" values="1; 0; 0; 1" keyTimes="0; 0.333; 0.667; 1" keySplines="0 0 1 1; 0 0 1 1; 0 0 1 1" fill="freeze" /><g transform="translate(267.585,303.394)"><animateTransform repeatCount="indefinite" type="translate" attributeName="transform" dur="3.6s" begin="0s" calcMode="spline" values="267.585 303.394; 155.585 303.394; 43.585 303.394; -68.372 303.394; 953.1 303.394; 841.1 303.394; 729.1 303.394; 617.1 303.394; 505.1 303.394; 393.1 303.394; 275.975 303.394" keyTimes="0; 0.111; 0.222; 0.329; 0.333; 0.444; 0.556; 0.667; 0.778; 0.889; 1" keySplines="0 0 1 1; 0 0 1 1; 0 0 1 1; 0 0 1 1; 0 0 1 1; 0 0 1 1; 0 0 1 1; 0 0 1 1; 0 0 1 1; 0 0 1 1" fill="freeze" /><g transform="scale(0.521,0.521) translate(455.238,-25.727)"><g id="Shape 12" transform="matrix(0.914,0.407,-0.407,0.914,-399.04,-22.218)"><g id="Shape 2" fill="#ffffff" fill-opacity="1"><path fill="#f0f0f0" fill-opacity="1" d="M43.75,-101.25L43.75,-45.25L92.75,-45.25L43.75,-101.25Z" /></g><g id="Shape 3" fill="#ffffff" fill-opacity="1"><path stroke-linejoin="miter" stroke-linecap="butt" stroke-width="12" stroke-opacity="1" stroke="#f0f0f0" d="M-136,-86L-135,227L84,227" /></g><g id="Shape 4" transform="matrix(1,0,0,1,-3,0)" fill="#ffffff" fill-opacity="1"><path stroke-linejoin="miter" stroke-linecap="round" stroke-width="5" stroke-opacity="1" stroke="#44475b" fill="#f0f0f0" fill-opacity="1" d="M-83,-34L-39,-34" /></g><g id="Shape 5" fill="#ffffff" fill-opacity="1"><path stroke-linejoin="miter" stroke-linecap="round" stroke-width="5" stroke-opacity="1" stroke="#44475b" fill="#f0f0f0" fill-opacity="1" d="M-86,-13L52,-13" /></g><g id="Shape 6" transform="matrix(0.747,0,0,0.931,0,37.746)" fill="#ffffff" fill-opacity="1"><path stroke-linejoin="miter" stroke-linecap="round" stroke-width="5" stroke-opacity="1" stroke="#44475b" fill="#f0f0f0" fill-opacity="1" d="M-115.452,9L22.548,9" /></g><g id="Shape 7" transform="matrix(1,0,0,1,0,37.746)" fill="#ffffff" fill-opacity="1"><path stroke-linejoin="miter" stroke-linecap="round" stroke-width="5" stroke-opacity="1" stroke="#44475b" fill="#f0f0f0" fill-opacity="1" d="M-86,-12L52,-12" /></g><g id="Shape 8" transform="matrix(1,0,0,1,0,37.746)" fill="#ffffff" fill-opacity="1"><path stroke-linejoin="miter" stroke-linecap="round" stroke-width="5" stroke-opacity="1" stroke="#44475b" fill="#f0f0f0" fill-opacity="1" d="M-86,-31L52,-31" /></g><path d="M43,-102L-129,-102L-129,221L93,221L93,-45L43,-102Z" fill="#ffffff" fill-opacity="1" /></g></g></g></g><g opacity="1" id="Page 2"><animate repeatCount="indefinite" attributeName="opacity" dur="0.05s" begin="0.7666666666666667s" calcMode="spline" values="1; 0; 0; 1" keyTimes="0; 0.333; 0.667; 1" keySplines="0 0 1 1; 0 0 1 1; 0 0 1 1" fill="freeze" /><g transform="translate(158.759,287.627)"><animateTransform repeatCount="indefinite" type="translate" attributeName="transform" dur="3.6s" begin="0s" calcMode="spline" values="158.759 287.627; 46.759 287.627; -65.241 287.627; 953.1 287.627; 841.143 287.627; 729.143 287.627; 617.143 287.627; 505.143 287.627; 393.143 287.627; 281.143 287.627; 164.018 287.627" keyTimes="0; 0.111; 0.218; 0.222; 0.333; 0.444; 0.556; 0.667; 0.778; 0.889; 1" keySplines="0 0 1 1; 0 0 1 1; 0 0 1 1; 0 0 1 1; 0 0 1 1; 0 0 1 1; 0 0 1 1; 0 0 1 1; 0 0 1 1; 0 0 1 1" fill="freeze" /><g transform="scale(0.521,0.521) translate(634.034,4.558)"><g id="Shape 13" transform="matrix(0.982,0.191,-0.191,0.982,-596.056,-61.616)"><g id="Shape 2" fill="#ffffff" fill-opacity="1"><path fill="#f0f0f0" fill-opacity="1" d="M43.75,-101.25L43.75,-45.25L92.75,-45.25L43.75,-101.25Z" /></g><g id="Shape 3" fill="#ffffff" fill-opacity="1"><path stroke-linejoin="miter" stroke-linecap="butt" stroke-width="12" stroke-opacity="1" stroke="#f0f0f0" d="M-136,-86L-135,227L84,227" /></g><g id="Shape 4" transform="matrix(1,0,0,1,-3,0)" fill="#ffffff" fill-opacity="1"><path stroke-linejoin="miter" stroke-linecap="round" stroke-width="5" stroke-opacity="1" stroke="#44475b" fill="#f0f0f0" fill-opacity="1" d="M-83,-34L-39,-34" /></g><g id="Shape 5" fill="#ffffff" fill-opacity="1"><path stroke-linejoin="miter" stroke-linecap="round" stroke-width="5" stroke-opacity="1" stroke="#44475b" fill="#f0f0f0" fill-opacity="1" d="M-86,-13L52,-13" /></g><g id="Shape 6" transform="matrix(0.747,0,0,0.931,0,37.746)" fill="#ffffff" fill-opacity="1"><path stroke-linejoin="miter" stroke-linecap="round" stroke-width="5" stroke-opacity="1" stroke="#44475b" fill="#f0f0f0" fill-opacity="1" d="M-115.452,9L22.548,9" /></g><g id="Shape 7" transform="matrix(1,0,0,1,0,37.746)" fill="#ffffff" fill-opacity="1"><path stroke-linejoin="miter" stroke-linecap="round" stroke-width="5" stroke-opacity="1" stroke="#44475b" fill="#f0f0f0" fill-opacity="1" d="M-86,-12L52,-12" /></g><g id="Shape 8" transform="matrix(1,0,0,1,0,37.746)" fill="#ffffff" fill-opacity="1"><path stroke-linejoin="miter" stroke-linecap="round" stroke-width="5" stroke-opacity="1" stroke="#44475b" fill="#f0f0f0" fill-opacity="1" d="M-86,-31L52,-31" /></g><path d="M43,-102L-129,-102L-129,221L93,221L93,-45L43,-102Z" fill="#ffffff" fill-opacity="1" /></g></g></g></g><g opacity="1" id="Page 1"><animate repeatCount="indefinite" attributeName="opacity" dur="0.05s" begin="0.36666666666666664s" calcMode="spline" values="1; 0; 0; 1" keyTimes="0; 0.333; 0.667; 1" keySplines="0 0 1 1; 0 0 1 1; 0 0 1 1" fill="freeze" /><g transform="translate(46.807,322.538)"><animateTransform repeatCount="indefinite" type="translate" attributeName="transform" dur="3.6s" begin="0s" calcMode="spline" values="46.807 322.538; -65.193 322.538; 953.1 322.538; 841.1 322.538; 729.143 322.538; 617.143 322.538; 505.143 322.538; 393.143 322.538; 281.143 322.538; 169.143 322.538; 52.018 322.538" keyTimes="0; 0.106; 0.111; 0.222; 0.333; 0.444; 0.556; 0.667; 0.778; 0.889; 1" keySplines="0 0 1 1; 0 0 1 1; 0 0 1 1; 0 0 1 1; 0 0 1 1; 0 0 1 1; 0 0 1 1; 0 0 1 1; 0 0 1 1; 0 0 1 1" fill="freeze" /><g transform="scale(0.521,0.521) translate(21.5,-62.5)"><g id="Shape 1"><g id="Shape 2" fill="#ffffff" fill-opacity="1"><path fill="#f0f0f0" fill-opacity="1" d="M43.75,-101.25L43.75,-45.25L92.75,-45.25L43.75,-101.25Z" /></g><g id="Shape 3" fill="#ffffff" fill-opacity="1"><path stroke-linejoin="miter" stroke-linecap="butt" stroke-width="12" stroke-opacity="1" stroke="#f0f0f0" d="M-136,-86L-135,227L84,227" /></g><g id="Shape 4" transform="matrix(1,0,0,1,-3,0)" fill="#ffffff" fill-opacity="1"><path stroke-linejoin="miter" stroke-linecap="round" stroke-width="5" stroke-opacity="1" stroke="#44475b" fill="#f0f0f0" fill-opacity="1" d="M-83,-34L-39,-34" /></g><g id="Shape 5" fill="#ffffff" fill-opacity="1"><path stroke-linejoin="miter" stroke-linecap="round" stroke-width="5" stroke-opacity="1" stroke="#44475b" fill="#f0f0f0" fill-opacity="1" d="M-86,-13L52,-13" /></g><g id="Shape 6" transform="matrix(0.747,0,0,0.931,0,37.746)" fill="#ffffff" fill-opacity="1"><path stroke-linejoin="miter" stroke-linecap="round" stroke-width="5" stroke-opacity="1" stroke="#44475b" fill="#f0f0f0" fill-opacity="1" d="M-115.452,9L22.548,9" /></g><g id="Shape 7" transform="matrix(1,0,0,1,0,37.746)" fill="#ffffff" fill-opacity="1"><path stroke-linejoin="miter" stroke-linecap="round" stroke-width="5" stroke-opacity="1" stroke="#44475b" fill="#f0f0f0" fill-opacity="1" d="M-86,-12L52,-12" /></g><g id="Shape 8" transform="matrix(1,0,0,1,0,37.746)" fill="#ffffff" fill-opacity="1"><path stroke-linejoin="miter" stroke-linecap="round" stroke-width="5" stroke-opacity="1" stroke="#44475b" fill="#f0f0f0" fill-opacity="1" d="M-86,-31L52,-31" /></g><path d="M43,-102L-129,-102L-129,221L93,221L93,-45L43,-102Z" fill="#ffffff" fill-opacity="1" /></g></g></g></g><g opacity="1" id="Coloured Page 5"><animate repeatCount="indefinite" attributeName="opacity" dur="0.05s" begin="1.9666666666666666s" calcMode="spline" values="1; 0; 0; 1" keyTimes="0; 0.333; 0.667; 1" keySplines="0 0 1 1; 0 0 1 1; 0 0 1 1" fill="freeze" /><g transform="translate(499.957,322.538)"><animateTransform repeatCount="indefinite" type="translate" attributeName="transform" dur="3.6s" begin="0s" calcMode="spline" values="499.957 322.538; 387.957 322.538; 275.957 322.538; 164 322.538; 52 322.538; -60 322.538; 953.1 322.538; 841.1 322.538; 729.1 322.538; 617.1 322.538; 499.975 322.538" keyTimes="0; 0.111; 0.222; 0.333; 0.444; 0.551; 0.556; 0.667; 0.778; 0.889; 1" keySplines="0 0 1 1; 0 0 1 1; 0 0 1 1; 0 0 1 1; 0 0 1 1; 0 0 1 1; 0 0 1 1; 0 0 1 1; 0 0 1 1; 0 0 1 1" fill="freeze" /><g transform="scale(0.521,0.521) translate(21.5,-62.5)"><g id="Shape 1"><g id="Shape 2" fill="#eb0058" fill-opacity="1"><path fill="#751c3d" fill-opacity="1" d="M43.75,-101.25L43.75,-45.25L92.75,-45.25L43.75,-101.25Z" /></g><g id="Shape 3" fill="#eb0058" fill-opacity="1"><path stroke-linejoin="miter" stroke-linecap="butt" stroke-width="12" stroke-opacity="1" stroke="#f0f0f0" d="M-136,-86L-135,227L84,227" /></g><g id="Shape 4" transform="matrix(1,0,0,1,-3,0)" fill="#eb0058" fill-opacity="1"><path stroke-linejoin="miter" stroke-linecap="round" stroke-width="5" stroke-opacity="1" stroke="#44475b" fill="#f0f0f0" fill-opacity="1" d="M-83,-34L-39,-34" /></g><g id="Shape 5" fill="#eb0058" fill-opacity="1"><path stroke-linejoin="miter" stroke-linecap="round" stroke-width="5" stroke-opacity="1" stroke="#44475b" fill="#f0f0f0" fill-opacity="1" d="M-86,-13L52,-13" /></g><g id="Shape 6" transform="matrix(0.747,0,0,0.931,0,37.746)" fill="#eb0058" fill-opacity="1"><path stroke-linejoin="miter" stroke-linecap="round" stroke-width="5" stroke-opacity="1" stroke="#44475b" fill="#f0f0f0" fill-opacity="1" d="M-115.452,9L22.548,9" /></g><g id="Shape 7" transform="matrix(1,0,0,1,0,37.746)" fill="#eb0058" fill-opacity="1"><path stroke-linejoin="miter" stroke-linecap="round" stroke-width="5" stroke-opacity="1" stroke="#44475b" fill="#f0f0f0" fill-opacity="1" d="M-86,-12L52,-12" /></g><g id="Shape 8" transform="matrix(1,0,0,1,0,37.746)" fill="#eb0058" fill-opacity="1"><path stroke-linejoin="miter" stroke-linecap="round" stroke-width="5" stroke-opacity="1" stroke="#44475b" fill="#f0f0f0" fill-opacity="1" d="M-86,-31L52,-31" /></g><path d="M43,-102L-129,-102L-129,221L93,221L93,-45L43,-102Z" fill="#eb0058" fill-opacity="1" /></g></g></g></g><g id="Coloured mask 3"><g transform="translate(499.752,301)"><animateTransform repeatCount="indefinite" type="translate" attributeName="transform" dur="3.6s" begin="0s" calcMode="spline" values="499.752 301; 466 334.752; 432.248 301; 466 267.248; 499.752 301; 466 334.752; 432.248 301; 466 267.248; 499.752 301" keyTimes="0; 0.132; 0.264; 0.396; 0.528; 0.646; 0.764; 0.882; 1" keySplines="0 0 1 1; 0 0 1 1; 0 0 1 1; 0 0 1 1; 0 0 1 1; 0 0 1 1; 0 0 1 1; 0 0 1 1" fill="freeze" /><g transform="scale(0.554,0.554) translate(0,0)"><g id="Ellipse 1" transform="matrix(1,0,0,1,-8.05,-34.007)"><ellipse ry="170.3905" rx="170.3905" cy="0" cx="0" stroke-linejoin="miter" stroke-linecap="butt" stroke-width="3" stroke-opacity="1" stroke="#0c2334" fill="#7c7070" fill-opacity="1" /></g></g></g></g><g opacity="1" id="Coloured Page 2"><animate repeatCount="indefinite" attributeName="opacity" dur="0.05s" begin="0.7666666666666667s" calcMode="spline" values="1; 0; 0; 1" keyTimes="0; 0.333; 0.667; 1" keySplines="0 0 1 1; 0 0 1 1; 0 0 1 1" fill="freeze" /><g transform="translate(158.504,288.713)"><animateTransform repeatCount="indefinite" type="translate" attributeName="transform" dur="3.6s" begin="0s" calcMode="spline" values="158.504 288.713; 46.504 288.713; -65.496 288.713; 952.8 287.627; 840.843 287.627; 728.843 287.627; 616.843 287.627; 504.843 287.627; 392.843 287.627; 280.843 287.627; 163.718 287.627" keyTimes="0; 0.111; 0.218; 0.222; 0.333; 0.444; 0.556; 0.667; 0.778; 0.889; 1" keySplines="0 0 1 1; 0 0 1 1; 0 0 1 1; 0 0 1 1; 0 0 1 1; 0 0 1 1; 0 0 1 1; 0 0 1 1; 0 0 1 1; 0 0 1 1" fill="freeze" /><g transform="scale(0.521,0.521) translate(640.288,5.527)"><g id="Shape 12" transform="matrix(0.982,0.191,-0.191,0.982,-605.827,-60.499)"><g id="Shape 2" fill="#e60056" fill-opacity="1"><path fill="#7c183e" fill-opacity="1" d="M43.75,-101.25L43.75,-45.25L92.75,-45.25L43.75,-101.25Z" /></g><g id="Shape 4" transform="matrix(1,0,0,1,-3,0)" fill="#e60056" fill-opacity="1"><path stroke-linejoin="miter" stroke-linecap="round" stroke-width="5" stroke-opacity="1" stroke="#44475b" fill="#f0f0f0" fill-opacity="1" d="M-83,-34L-39,-34" /></g><g id="Shape 5" fill="#e60056" fill-opacity="1"><path stroke-linejoin="miter" stroke-linecap="round" stroke-width="5" stroke-opacity="1" stroke="#44475b" fill="#f0f0f0" fill-opacity="1" d="M-86,-13L52,-13" /></g><g id="Shape 6" transform="matrix(0.747,0,0,0.931,0,37.746)" fill="#e60056" fill-opacity="1"><path stroke-linejoin="miter" stroke-linecap="round" stroke-width="5" stroke-opacity="1" stroke="#44475b" fill="#f0f0f0" fill-opacity="1" d="M-115.452,9L22.548,9" /></g><g id="Shape 7" transform="matrix(1,0,0,1,0,37.746)" fill="#e60056" fill-opacity="1"><path stroke-linejoin="miter" stroke-linecap="round" stroke-width="5" stroke-opacity="1" stroke="#44475b" fill="#f0f0f0" fill-opacity="1" d="M-86,-12L52,-12" /></g><g id="Shape 8" transform="matrix(1,0,0,1,0,37.746)" fill="#e60056" fill-opacity="1"><path stroke-linejoin="miter" stroke-linecap="round" stroke-width="5" stroke-opacity="1" stroke="#44475b" fill="#f0f0f0" fill-opacity="1" d="M-86,-31L52,-31" /></g><path d="M43,-102L-129,-102L-129,221L93,221L93,-45L43,-102Z" fill="#e60056" fill-opacity="1" /></g></g></g></g><g id="Coloured mask 2"><g transform="translate(499.752,301)"><animateTransform repeatCount="indefinite" type="translate" attributeName="transform" dur="3.6s" begin="0s" calcMode="spline" values="499.752 301; 466 334.752; 432.248 301; 466 267.248; 499.752 301; 466 334.752; 432.248 301; 466 267.248; 499.752 301" keyTimes="0; 0.132; 0.264; 0.396; 0.528; 0.646; 0.764; 0.882; 1" keySplines="0 0 1 1; 0 0 1 1; 0 0 1 1; 0 0 1 1; 0 0 1 1; 0 0 1 1; 0 0 1 1; 0 0 1 1" fill="freeze" /><g transform="scale(0.554,0.554) translate(0,0)"><g id="Ellipse 1" transform="matrix(1,0,0,1,-8.05,-34.007)"><ellipse ry="170.3905" rx="170.3905" cy="0" cx="0" stroke-linejoin="miter" stroke-linecap="butt" stroke-width="3" stroke-opacity="1" stroke="#0c2334" fill="#7c7070" fill-opacity="1" /></g></g></g></g><g transform="matrix(1.02,0,0,1,500,300)" id="White gradient "><g id="Rectangle 1" transform="matrix(1,0,0,1,-1.207,-7.988)"><rect height="468.023" width="989.586" y="0" x="0" stroke-linejoin="miter" stroke-linecap="butt" stroke-width="0" stroke-opacity="1" stroke="#44475b" fill="url(#null)" /></g></g><g id="Mag glass"><g transform="translate(533.752,300)"><animateTransform repeatCount="indefinite" type="translate" attributeName="transform" dur="3.6s" begin="0s" calcMode="spline" values="533.752 300; 500 333.752; 466.248 300; 500 266.248; 533.752 300; 500 333.752; 466.248 300; 500 266.248; 533.752 300" keyTimes="0; 0.132; 0.264; 0.396; 0.528; 0.646; 0.764; 0.882; 1" keySplines="0 0 1 1; 0 0 1 1; 0 0 1 1; 0 0 1 1; 0 0 1 1; 0 0 1 1; 0 0 1 1; 0 0 1 1" fill="freeze" /><g transform="scale(0.5,0.5) translate(-387.227,-50.422)"><g id="Ellipse 1" transform="matrix(1.037,0,0,1.037,309.906,13.047)"><ellipse ry="207.117" rx="207.117" cy="0" cx="0" stroke-linejoin="miter" stroke-linecap="butt" stroke-width="0" stroke-opacity="1" stroke="#44475b" fill="#44475b" fill-opacity="1" /></g><g id="Ellipse 2" transform="matrix(0.9,0,0,0.9,309.968,14.727)"><ellipse ry="207.117" rx="207.117" cy="0" cx="0" stroke-linejoin="miter" stroke-linecap="butt" stroke-width="0" stroke-opacity="1" stroke="#44475b" fill="#828495" fill-opacity="1" /></g><g id="Rectangle 1" transform="matrix(0.866,-0.5,0.5,0.866,433.105,235.352)"><rect height="101.477" width="13.086" y="0" x="0" stroke-linejoin="miter" stroke-linecap="butt" stroke-width="0" stroke-opacity="1" stroke="#44475b" fill="#44475b" fill-opacity="1" /></g><g id="Rectangle 2" transform="matrix(0.866,-0.5,0.5,0.866,519.039,383.764)"><rect ry="9" rx="9" height="247.023" width="55.887" y="0" x="0" stroke-linejoin="miter" stroke-linecap="butt" stroke-width="0" stroke-opacity="1" stroke="#44475b" fill="#44475b" fill-opacity="1" /></g><g id="Rectangle 3" transform="matrix(0.571,-0.33,0.447,0.774,520.622,368.015)"><rect ry="9" rx="9" height="247.023" width="55.887" y="0" x="0" stroke-linejoin="miter" stroke-linecap="butt" stroke-width="0" stroke-opacity="1" stroke="#44475b" fill="#828495" fill-opacity="1" /></g></g></g></g></svg>